<?xml version="1.0" encoding="utf-8"?>
<svg viewBox="9.993 10 69 68.219" width="69px" height="68.219px" xmlns="http://www.w3.org/2000/svg">
  <path fill="#b1361e" d="M 43.423 68.049 C 44.523 67.3 46.029 67.669 46.658 68.842 C 47.618 67.846 49.192 67.779 50.232 68.691 C 50.692 67.022 52.527 66.153 54.109 66.853 C 54.142 65.178 55.481 63.823 57.155 63.769 C 56.255 61.888 57.027 59.632 58.892 58.697 C 57.82 57.557 57.734 55.807 58.691 54.569 C 57.396 53.869 56.82 52.319 57.344 50.944 C 55.815 50.785 54.744 49.36 55.015 47.847 L 54.613 47.847 C 53.606 47.847 52.775 47.218 52.624 46.261 L 52.624 46.211 C 51.507 46.982 49.965 46.396 49.641 45.078 C 49.297 45.255 48.889 45.255 48.546 45.078 C 48.373 45.734 48.025 46.33 47.539 46.803 C 48.21 47.106 48.449 47.938 48.042 48.552 C 49.457 48.919 49.972 50.659 48.986 51.737 C 50.471 52.451 50.625 54.504 49.265 55.432 C 49.223 55.46 49.181 55.487 49.137 55.513 C 49.339 55.764 49.54 55.966 49.641 56.305 C 50.422 57.85 49.532 59.715 47.841 60.081 C 48.855 62.099 47.304 64.457 45.051 64.326 C 45.037 64.325 45.023 64.324 45.009 64.323 C 45.111 65.649 44.378 66.899 43.171 67.457 L 43.423 68.099"/>
  <path fill="#b1361e" d="M 73.014 51.737 C 72.627 52.379 72.003 52.845 71.277 53.033 C 72.454 54.692 71.394 57.004 69.368 57.194 C 69.224 57.208 69.08 57.209 68.936 57.199 L 68.936 57.111 C 69.323 58.792 67.745 60.261 66.096 59.755 C 66.035 59.736 65.974 59.715 65.915 59.691 C 65.821 60.5 65.207 61.15 64.405 61.29 C 64.498 61.713 64.498 62.151 64.405 62.574 C 64.149 64.614 62.325 66.087 60.276 65.909 C 61.036 68.24 58.987 70.518 56.589 70.011 C 56.318 69.953 56.055 69.861 55.808 69.735 C 55.585 71.904 53.098 73.018 51.332 71.74 C 51.205 71.649 51.085 71.546 50.975 71.434 C 50.244 73.333 47.731 73.728 46.453 72.145 C 46.338 72.003 46.238 71.849 46.154 71.686 C 44.844 72.807 42.811 72.088 42.496 70.393 C 42.49 70.358 42.484 70.324 42.479 70.289 L 41.623 70.44 C 40.68 70.417 39.907 69.682 39.836 68.741 C 39.44 69.439 38.805 69.971 38.049 70.239 C 36.14 71.028 33.952 70.143 33.127 68.25 C 31.426 70.015 28.453 69.277 27.774 66.921 C 27.703 66.674 27.662 66.418 27.652 66.161 C 25.637 66.992 23.477 65.331 23.765 63.17 C 23.787 63.002 23.824 62.836 23.876 62.674 C 21.862 62.962 20.291 60.962 21.049 59.074 C 21.124 58.887 21.219 58.71 21.334 58.546 C 19.72 57.939 19.368 55.812 20.701 54.717 C 20.743 54.683 20.786 54.65 20.83 54.619 C 20.067 54.076 19.834 53.046 20.289 52.227 L 20.34 52.227 C 19.83 52.137 19.353 51.916 18.955 51.586 C 17.297 50.317 16.941 47.964 18.15 46.261 C 15.766 45.689 14.896 42.751 16.584 40.973 C 16.755 40.792 16.947 40.633 17.155 40.497 C 15.416 39.182 15.753 36.478 17.761 35.629 C 17.935 35.556 18.115 35.5 18.301 35.462 C 17.085 33.83 18.092 31.495 20.113 31.258 C 20.272 31.24 20.432 31.235 20.591 31.246 L 20.591 31.284 C 20.268 29.59 21.899 28.18 23.528 28.747 C 23.578 28.764 23.627 28.783 23.675 28.804 C 23.75 27.989 24.356 27.321 25.16 27.168 L 25.261 27.306 C 24.567 24.757 26.604 22.289 29.238 22.486 L 29.1 21.391 C 29.215 19.089 31.663 17.668 33.719 18.71 C 33.915 16.538 36.387 15.393 38.17 16.648 C 38.321 16.755 38.462 16.876 38.59 17.01 C 39.31 15.108 41.821 14.698 43.108 16.274 C 43.231 16.423 43.336 16.586 43.423 16.759 C 44.77 15.682 46.778 16.467 47.037 18.173 C 47.041 18.2 47.045 18.228 47.048 18.257 C 48.205 17.64 49.617 18.399 49.742 19.704 C 50.149 19.004 50.778 18.459 51.529 18.156 C 53.518 17.401 55.607 18.357 56.4 20.195 C 58.061 18.392 61.051 19.064 61.781 21.404 C 61.87 21.689 61.919 21.985 61.925 22.284 C 63.94 21.452 66.1 23.114 65.813 25.275 C 65.791 25.443 65.753 25.609 65.701 25.771 C 67.721 25.525 69.249 27.558 68.452 29.43 C 68.382 29.595 68.295 29.752 68.193 29.899 C 68.735 30.1 69.188 30.491 69.439 30.944 C 69.901 31.952 69.609 33.145 68.735 33.826 C 69.503 34.365 69.741 35.396 69.288 36.217 C 71.912 36.889 73.027 39.998 71.428 42.183 C 71.789 42.259 72.129 42.414 72.422 42.637 C 74.326 43.896 74.326 46.689 72.422 47.948 C 73.584 48.849 73.863 50.49 73.064 51.724 M 75.846 10 L 13.039 10 C 11.359 9.993 9.993 11.353 9.994 13.033 L 9.994 75.072 C 9.951 76.783 11.316 78.198 13.027 78.219 L 75.846 78.219 C 77.595 78.219 78.993 76.821 78.993 75.072 L 78.993 13.033 C 78.993 11.397 77.595 10 75.846 10"/>
  <path fill="#b1361e" d="M 42.869 19.603 C 41.909 20.599 40.336 20.666 39.295 19.754 C 38.832 21.4 37.028 22.264 35.456 21.592 C 35.406 23.25 34.091 24.591 32.435 24.676 C 33.334 26.561 32.555 28.818 30.686 29.748 C 31.758 30.888 31.843 32.638 30.887 33.876 C 32.182 34.576 32.758 36.126 32.234 37.501 C 33.736 37.687 34.776 39.094 34.512 40.585 L 34.915 40.585 C 35.909 40.585 36.803 41.239 36.903 42.183 C 38.04 41.412 39.597 42.036 39.886 43.379 C 40.213 43.17 40.622 43.132 40.981 43.278 C 41.108 42.621 41.398 42.007 41.825 41.491 L 41.485 41.038 C 41.283 40.686 41.384 40.245 41.485 39.905 C 40.074 39.523 39.578 37.775 40.579 36.708 C 39.089 36.006 38.919 33.954 40.272 33.015 C 40.342 32.966 40.415 32.922 40.491 32.882 C 39.016 31.48 39.612 29.008 41.563 28.431 C 41.6 28.421 41.637 28.41 41.674 28.401 C 40.625 26.402 42.134 24.017 44.39 24.109 C 44.45 24.112 44.509 24.116 44.569 24.122 C 44.467 22.796 45.199 21.546 46.406 20.988 L 46.154 20.346 C 45.784 20.676 45.304 20.855 44.808 20.849 C 43.964 20.849 43.323 20.296 42.869 19.591 M 65.903 42.976 C 64.875 42.188 64.316 40.933 64.417 39.641 C 62.88 39.966 61.336 39.122 60.78 37.652 C 59.536 38.323 57.991 38.01 57.105 36.91 C 56.18 38.164 54.377 38.351 53.215 37.312 L 53.039 37.69 C 52.52 38.505 51.52 38.871 50.597 38.584 C 50.597 38.986 50.446 39.389 50.245 39.679 C 49.788 40.42 48.883 40.753 48.055 40.484 C 48.054 40.82 47.913 41.139 47.665 41.365 C 48.084 41.829 48.405 42.373 48.609 42.964 L 49.112 42.813 C 49.553 42.813 49.943 43.064 50.094 43.417 C 51.074 42.304 52.89 42.658 53.379 44.059 C 53.766 43.77 54.244 43.631 54.726 43.669 C 55.868 43.722 56.766 44.665 56.765 45.808 C 58.651 45.045 60.656 46.61 60.374 48.625 C 60.35 48.797 60.309 48.967 60.251 49.131 C 62.479 49.253 63.761 51.719 62.58 53.612 C 64.059 54.327 64.751 56.05 64.178 57.589 L 64.518 57.589 C 64.497 56.337 65.506 55.311 66.759 55.311 C 66.412 53.952 67.209 52.563 68.558 52.177 C 67.31 50.928 67.497 48.853 68.949 47.847 C 67.593 46.922 67.163 45.119 67.954 43.681 C 67.234 43.657 66.54 43.411 65.966 42.976"/>
  <path fill="#b1361e" d="M 66.104 34.279 L 66.356 34.027 C 65.18 33.435 64.766 31.961 65.462 30.843 C 64.124 30.436 63.335 29.056 63.662 27.696 C 61.975 28.13 60.3 26.951 60.138 25.217 C 58.649 25.922 56.868 25.389 56.01 23.983 C 54.801 25.689 52.447 26.11 50.723 24.927 C 50.231 26.407 48.739 27.313 47.199 27.067 C 47.192 28.506 46.141 29.727 44.72 29.949 C 45.308 31.377 44.553 33.002 43.083 33.474 L 43.272 33.826 C 43.776 34.72 43.574 35.815 42.819 36.419 L 42.769 36.419 C 43.918 37.033 44.146 38.584 43.222 39.503 C 43.48 39.675 43.66 39.942 43.725 40.245 C 44.377 40.07 45.063 40.07 45.714 40.245 C 45.799 39.7 46.246 39.284 46.796 39.238 C 46.329 37.821 47.571 36.43 49.032 36.734 C 49.067 36.741 49.103 36.749 49.137 36.759 C 49.037 36.318 49.137 35.878 49.44 35.462 C 50.132 34.468 51.378 34.128 52.372 34.833 C 52.785 32.841 55.2 32.042 56.719 33.396 C 56.765 33.437 56.81 33.48 56.853 33.524 C 58.077 31.627 60.896 31.767 61.926 33.775 C 61.943 33.809 61.96 33.842 61.976 33.876 C 63.263 32.973 65.016 33.144 66.104 34.279 M 45.852 48.452 C 45.802 48.25 45.764 47.998 45.802 47.81 C 45.166 47.972 44.5 47.972 43.864 47.81 C 43.864 48.061 43.864 48.401 43.675 48.653 C 43.484 48.975 43.143 49.178 42.769 49.194 C 43.244 50.609 42.009 52.007 40.547 51.711 C 40.511 51.704 40.476 51.695 40.44 51.686 C 40.559 53.329 38.854 54.484 37.372 53.765 C 37.315 53.737 37.26 53.707 37.205 53.675 C 37.205 53.977 37.004 54.317 36.853 54.518 C 35.933 55.996 33.86 56.195 32.674 54.921 C 31.45 56.818 28.632 56.678 27.601 54.67 C 27.584 54.636 27.567 54.603 27.552 54.569 C 26.275 55.443 24.555 55.273 23.474 54.166 C 23.381 54.259 23.28 54.344 23.172 54.417 C 23.612 54.628 23.968 54.984 24.178 55.424 C 24.553 56.108 24.529 56.941 24.116 57.602 C 25.454 58.009 26.242 59.389 25.915 60.748 C 27.586 60.351 29.222 61.519 29.389 63.228 C 30.878 62.523 32.659 63.055 33.518 64.461 C 34.711 62.706 37.117 62.28 38.842 63.518 C 39.332 62.053 40.801 61.152 42.328 61.378 C 42.339 59.922 43.416 58.695 44.858 58.496 C 44.267 57.079 45.002 55.459 46.457 54.971 L 46.255 54.619 C 45.802 53.725 46.003 52.63 46.759 52.026 C 46.406 51.837 46.054 51.586 45.953 51.233 C 45.58 50.462 45.743 49.54 46.356 48.942 C 46.154 48.854 46.003 48.653 45.852 48.439"/>
  <path fill="#b1361e" d="M 41.183 45.418 C 40.6 45.829 39.789 45.641 39.446 45.015 C 38.464 46.07 36.716 45.723 36.211 44.373 C 35.819 44.651 35.344 44.789 34.864 44.764 C 33.722 44.71 32.824 43.767 32.825 42.624 C 30.897 43.272 28.99 41.589 29.393 39.594 C 29.406 39.53 29.422 39.465 29.44 39.402 C 27.182 39.444 25.726 37.027 26.818 35.051 C 26.862 34.972 26.909 34.895 26.96 34.82 C 25.481 34.105 24.789 32.383 25.362 30.843 C 25.261 30.851 25.16 30.851 25.06 30.843 C 25.088 32.115 24.053 33.156 22.781 33.134 C 23.101 34.489 22.314 35.861 20.982 36.268 C 22.22 37.516 22.033 39.579 20.591 40.585 C 21.954 41.511 22.385 43.323 21.586 44.764 C 22.278 44.764 22.97 45.015 23.574 45.469 C 24.621 46.246 25.2 47.503 25.11 48.804 C 26.644 48.477 28.187 49.316 28.747 50.78 C 30.003 50.081 31.581 50.395 32.473 51.523 C 33.395 50.303 35.157 50.119 36.312 51.12 L 36.501 50.73 C 37.025 49.892 38.055 49.523 38.993 49.836 C 38.993 49.433 39.093 49.03 39.295 48.741 C 39.798 47.986 40.629 47.646 41.485 47.935 C 41.481 47.466 41.752 47.038 42.177 46.84 C 41.735 46.426 41.391 45.919 41.17 45.355"/>
</svg>